<svg width="151" height="155" viewBox="0 0 151 155" fill="none" xmlns="http://www.w3.org/2000/svg">
<path d="M62.5 1.18596C42.8806 4.66677 25.3919 15.4951 13.8708 31.2951C2.34982 47.0951 -2.26253 66.5764 1.04577 85.4647L11.5957 145.296C12.1287 148.319 13.8874 150.998 16.4851 152.743C19.0828 154.489 22.3067 155.159 25.4474 154.605L87.6189 143.642C107.249 140.181 124.751 129.357 136.276 113.552C147.801 97.7465 152.404 78.2544 149.073 59.3635C145.742 40.4726 134.75 23.7304 118.514 12.82C102.279 1.90963 82.1296 -2.27527 62.5 1.18596ZM44.5029 89.5529C42.7463 89.8626 40.9408 89.6641 39.3146 88.9825C37.6884 88.3008 36.3146 87.1666 35.367 85.7233C34.4194 84.28 33.9405 82.5924 33.9908 80.874C34.0411 79.1555 34.6185 77.4834 35.6498 76.069C36.6812 74.6546 38.1202 73.5615 39.7849 72.9279C41.4496 72.2943 43.2653 72.1487 45.0023 72.5094C46.7392 72.8702 48.3195 73.7212 49.5433 74.9547C50.7671 76.1882 51.5794 77.7489 51.8774 79.4394C52.2772 81.7063 51.7248 84.0454 50.3418 85.942C48.9588 87.8387 46.8585 89.1375 44.5029 89.5529ZM77.069 83.8106C75.3123 84.1204 73.5068 83.9218 71.8806 83.2402C70.2544 82.5585 68.8806 81.4243 67.933 79.981C66.9854 78.5377 66.5065 76.8502 66.5568 75.1317C66.6072 73.4133 67.1845 71.7411 68.2159 70.3267C69.2472 68.9123 70.6862 67.8192 72.3509 67.1856C74.0156 66.552 75.8313 66.4064 77.5683 66.7672C79.3052 67.1279 80.8855 67.9789 82.1093 69.2124C83.3331 70.446 84.1454 72.0067 84.4435 73.6972C84.8432 75.9641 84.2908 78.3031 82.9078 80.1998C81.5248 82.0964 79.4245 83.3953 77.069 83.8106ZM109.635 78.0683C107.878 78.3781 106.073 78.1796 104.447 77.4979C102.82 76.8163 101.447 75.6821 100.499 74.2388C99.5514 72.7955 99.0725 71.1079 99.1228 69.3894C99.1732 67.671 99.7505 65.9988 100.782 64.5844C101.813 63.1701 103.252 62.0769 104.917 61.4434C106.582 60.8098 108.397 60.6641 110.134 61.0249C111.871 61.3857 113.452 62.2366 114.675 63.4702C115.899 64.7037 116.711 66.2644 117.009 67.9549C117.409 70.2218 116.857 72.5609 115.474 74.4575C114.091 76.3541 111.991 77.653 109.635 78.0683Z" fill="white"/>
</svg>
