<svg width="94" height="89" viewBox="0 0 94 89" fill="none" xmlns="http://www.w3.org/2000/svg">
<path d="M79.3733 4.70671C78.3846 3.29212 77.0775 2.12955 75.5573 1.31263C74.037 0.495723 72.3461 0.0473253 70.6209 0.0035678C68.8956 -0.0401889 67.1841 0.321921 65.6244 1.06072C64.0647 1.79952 62.7004 2.89435 61.6413 4.257C60.5822 5.61965 59.8579 7.21202 59.527 8.90582C59.196 10.5996 59.2675 12.3475 59.7357 14.0086C60.2039 15.6697 61.0558 17.1976 62.2226 18.4692C63.3895 19.7408 64.8387 20.7205 66.4535 21.3295L65.2662 38.0148L45.002 25.603C45.5837 23.4192 45.4798 21.1093 44.7045 18.9866C43.9292 16.8638 42.5199 15.0307 40.6677 13.7359C38.8155 12.441 36.61 11.747 34.3501 11.7478C32.0901 11.7487 29.8851 12.4443 28.0339 13.7406C26.1827 15.0368 24.7748 16.8709 24.001 18.9943C23.2273 21.1176 23.1251 23.4275 23.7084 25.6109C24.2917 27.7943 25.5322 29.7455 27.2618 31.2001C28.9914 32.6547 31.1264 33.5423 33.3774 33.7426L38.1225 57.0066L22.0374 52.4156C22.0086 50.0132 21.1954 47.6861 19.7216 45.7887C18.2479 43.8912 16.1944 42.5274 13.8739 41.905C11.5534 41.2825 9.09308 41.4355 6.86758 42.3407C4.64208 43.2459 2.7734 44.8536 1.54614 46.919C0.318874 48.9844 -0.199722 51.3944 0.0693357 53.7818C0.338393 56.1692 1.38036 58.4033 3.03654 60.1438C4.69272 61.8842 6.87236 63.0357 9.2435 63.4229C11.6146 63.81 14.0473 63.4116 16.1711 62.2883L40.4522 87.0303C41.4961 88.094 42.8834 88.753 44.3675 88.89C45.8515 89.027 47.3361 88.6331 48.5571 87.7784L90.6067 58.335C91.8274 57.4799 92.7053 56.2196 93.0841 54.7782C93.463 53.3368 93.3183 51.8077 92.6757 50.463L77.7362 19.1991C79.7283 17.3979 80.994 14.9312 81.2955 12.2625C81.597 9.59381 80.9134 6.9069 79.3733 4.70671ZM31.6602 18.8989C32.4253 18.3632 33.3321 18.0664 34.2659 18.046C35.1997 18.0256 36.1185 18.2826 36.9063 18.7845C37.694 19.2863 38.3152 20.0105 38.6914 20.8654C39.0676 21.7203 39.1818 22.6676 39.0196 23.5874C38.8574 24.5072 38.4261 25.3583 37.7802 26.033C37.1343 26.7077 36.3029 27.1757 35.391 27.3779C34.4791 27.58 33.5278 27.5072 32.6573 27.1687C31.7868 26.8302 31.0362 26.2411 30.5005 25.476C29.7821 24.4501 29.5007 23.1807 29.7182 21.9473C29.9357 20.7138 30.6342 19.6173 31.6602 18.8989ZM7.16292 55.269C6.62719 54.5039 6.33037 53.5971 6.31 52.6633C6.28962 51.7295 6.5466 50.8106 7.04845 50.0229C7.55029 49.2352 8.27446 48.6139 9.12938 48.2377C9.98429 47.8616 10.9316 47.7474 11.8514 47.9096C12.7712 48.0717 13.6223 48.5031 14.297 49.1489C14.9717 49.7948 15.4397 50.6263 15.6419 51.5381C15.844 52.45 15.7712 53.4014 15.4327 54.2719C15.0942 55.1424 14.5051 55.893 13.74 56.4287C12.7141 57.1471 11.4447 57.4285 10.2113 57.211C8.97784 56.9935 7.88131 56.2949 7.16292 55.269ZM73.0557 14.8954C72.2906 15.4311 71.3838 15.728 70.45 15.7483C69.5162 15.7687 68.5974 15.5117 67.8096 15.0099C67.0219 14.508 66.4007 13.7839 66.0245 12.9289C65.6483 12.074 65.5341 11.1268 65.6963 10.2069C65.8585 9.28712 66.2898 8.43605 66.9357 7.76135C67.5816 7.08665 68.413 6.61863 69.3249 6.41647C70.2367 6.21432 71.1881 6.2871 72.0586 6.62562C72.9291 6.96415 73.6797 7.5532 74.2154 8.3183C74.9338 9.34427 75.2152 10.6136 74.9977 11.847C74.7802 13.0805 74.0817 14.177 73.0557 14.8954Z" fill="url(#paint0_linear_21_9)"/>
<defs>
<linearGradient id="paint0_linear_21_9" x1="28.0424" y1="13.7346" x2="69.5807" y2="73.0575" gradientUnits="userSpaceOnUse">
<stop stop-color="#D5C41D"/>
<stop offset="1" stop-color="#D02727"/>
</linearGradient>
</defs>
</svg>
