<svg width="225" height="72" viewBox="0 0 225 72" fill="none" xmlns="http://www.w3.org/2000/svg">
<path d="M66.3793 11.9348C66.3793 12.2865 66.2394 12.6238 65.9905 12.8725C65.7415 13.1212 65.4038 13.2609 65.0517 13.2609H54.431C54.0789 13.2609 53.7413 13.1212 53.4923 12.8725C53.2433 12.6238 53.1034 12.2865 53.1034 11.9348C53.1034 11.5831 53.2433 11.2458 53.4923 10.9971C53.7413 10.7484 54.0789 10.6087 54.431 10.6087H65.0517C65.4038 10.6087 65.7415 10.7484 65.9905 10.9971C66.2394 11.2458 66.3793 11.5831 66.3793 11.9348ZM65.0517 21.2174H54.431C54.0789 21.2174 53.7413 21.3571 53.4923 21.6058C53.2433 21.8545 53.1034 22.1918 53.1034 22.5435C53.1034 22.8952 53.2433 23.2325 53.4923 23.4812C53.7413 23.7299 54.0789 23.8696 54.431 23.8696H65.0517C65.4038 23.8696 65.7415 23.7299 65.9905 23.4812C66.2394 23.2325 66.3793 22.8952 66.3793 22.5435C66.3793 22.1918 66.2394 21.8545 65.9905 21.6058C65.7415 21.3571 65.4038 21.2174 65.0517 21.2174ZM77 3.97826V57.0217C77 58.0768 76.5804 59.0887 75.8335 59.8348C75.0866 60.5809 74.0735 61 73.0172 61H46.4655C45.4092 61 44.3962 60.5809 43.6493 59.8348C42.9024 59.0887 42.4828 58.0768 42.4828 57.0217V50.3913H26.5517V58.3478H33.1897C33.5418 58.3478 33.8794 58.4875 34.1284 58.7362C34.3774 58.9849 34.5172 59.3222 34.5172 59.6739C34.5172 60.0256 34.3774 60.3629 34.1284 60.6116C33.8794 60.8603 33.5418 61 33.1897 61H17.2586C16.9065 61 16.5688 60.8603 16.3199 60.6116C16.0709 60.3629 15.931 60.0256 15.931 59.6739C15.931 59.3222 16.0709 58.9849 16.3199 58.7362C16.5688 58.4875 16.9065 58.3478 17.2586 58.3478H23.8966V50.3913H6.63793C4.87744 50.3913 3.18906 49.6927 1.9442 48.4493C0.699351 47.2058 0 45.5194 0 43.7609V19.8913C0 18.1328 0.699351 16.4463 1.9442 15.2029C3.18906 13.9594 4.87744 13.2609 6.63793 13.2609H42.4828V3.97826C42.4828 2.92316 42.9024 1.91127 43.6493 1.16521C44.3962 0.419137 45.4092 0 46.4655 0H73.0172C74.0735 0 75.0866 0.419137 75.8335 1.16521C76.5804 1.91127 77 2.92316 77 3.97826ZM42.4828 47.7391V15.913H6.63793C5.58164 15.913 4.56861 16.3322 3.8217 17.0782C3.07478 17.8243 2.65517 18.8362 2.65517 19.8913V43.7609C2.65517 44.816 3.07478 45.8279 3.8217 46.5739C4.56861 47.32 5.58164 47.7391 6.63793 47.7391H42.4828ZM74.3448 3.97826C74.3448 3.62656 74.205 3.28927 73.956 3.04058C73.707 2.79189 73.3693 2.65217 73.0172 2.65217H46.4655C46.1134 2.65217 45.7757 2.79189 45.5268 3.04058C45.2778 3.28927 45.1379 3.62656 45.1379 3.97826V57.0217C45.1379 57.3734 45.2778 57.7107 45.5268 57.9594C45.7757 58.2081 46.1134 58.3478 46.4655 58.3478H73.0172C73.3693 58.3478 73.707 58.2081 73.956 57.9594C74.205 57.7107 74.3448 57.3734 74.3448 57.0217V3.97826ZM59.7414 45.087C59.2162 45.087 58.7029 45.2425 58.2662 45.5339C57.8296 45.8254 57.4893 46.2396 57.2883 46.7242C57.0874 47.2088 57.0348 47.7421 57.1372 48.2565C57.2397 48.771 57.4926 49.2436 57.8639 49.6145C58.2352 49.9854 58.7083 50.238 59.2234 50.3403C59.7384 50.4427 60.2723 50.3902 60.7575 50.1894C61.2426 49.9887 61.6573 49.6487 61.9491 49.2126C62.2408 48.7765 62.3966 48.2637 62.3966 47.7391C62.3966 47.0357 62.1168 46.3611 61.6189 45.8638C61.1209 45.3664 60.4456 45.087 59.7414 45.087Z" fill="white"/>
<path d="M93.725 31.0625V13.5625H101.375C103.275 13.5625 104.942 13.9292 106.375 14.6625C107.808 15.3958 108.925 16.4125 109.725 17.7125C110.525 19.0125 110.925 20.5458 110.925 22.3125C110.925 24.0625 110.525 25.5958 109.725 26.9125C108.925 28.2125 107.808 29.2292 106.375 29.9625C104.942 30.6958 103.275 31.0625 101.375 31.0625H93.725ZM96.975 28.3125H101.225C102.542 28.3125 103.675 28.0625 104.625 27.5625C105.592 27.0625 106.333 26.3625 106.85 25.4625C107.383 24.5625 107.65 23.5125 107.65 22.3125C107.65 21.0958 107.383 20.0458 106.85 19.1625C106.333 18.2625 105.592 17.5625 104.625 17.0625C103.675 16.5625 102.542 16.3125 101.225 16.3125H96.975V28.3125ZM120.354 31.2375C118.871 31.2375 117.571 30.9458 116.454 30.3625C115.354 29.7625 114.496 28.9458 113.879 27.9125C113.279 26.8792 112.979 25.7042 112.979 24.3875C112.979 23.0542 113.271 21.8792 113.854 20.8625C114.454 19.8292 115.271 19.0208 116.304 18.4375C117.354 17.8542 118.546 17.5625 119.879 17.5625C121.179 17.5625 122.338 17.8458 123.354 18.4125C124.371 18.9792 125.171 19.7792 125.754 20.8125C126.338 21.8458 126.629 23.0625 126.629 24.4625C126.629 24.5958 126.621 24.7458 126.604 24.9125C126.604 25.0792 126.596 25.2375 126.579 25.3875H115.454V23.3125H124.929L123.704 23.9625C123.721 23.1958 123.563 22.5208 123.229 21.9375C122.896 21.3542 122.438 20.8958 121.854 20.5625C121.288 20.2292 120.629 20.0625 119.879 20.0625C119.113 20.0625 118.438 20.2292 117.854 20.5625C117.288 20.8958 116.838 21.3625 116.504 21.9625C116.188 22.5458 116.029 23.2375 116.029 24.0375V24.5375C116.029 25.3375 116.213 26.0458 116.579 26.6625C116.946 27.2792 117.463 27.7542 118.129 28.0875C118.796 28.4208 119.563 28.5875 120.429 28.5875C121.179 28.5875 121.854 28.4708 122.454 28.2375C123.054 28.0042 123.588 27.6375 124.054 27.1375L125.729 29.0625C125.129 29.7625 124.371 30.3042 123.454 30.6875C122.554 31.0542 121.521 31.2375 120.354 31.2375ZM132.937 31.0625L127.212 17.7125H130.462L135.387 29.4875H133.787L138.887 17.7125H141.887L136.162 31.0625H132.937ZM144.14 31.0625V13.5625H152.34C154.44 13.5625 156.04 13.9792 157.14 14.8125C158.24 15.6292 158.79 16.7292 158.79 18.1125C158.79 19.0458 158.573 19.8458 158.14 20.5125C157.707 21.1625 157.123 21.6708 156.39 22.0375C155.673 22.3875 154.89 22.5625 154.04 22.5625L154.49 21.6625C155.473 21.6625 156.357 21.8458 157.14 22.2125C157.923 22.5625 158.54 23.0792 158.99 23.7625C159.457 24.4458 159.69 25.2958 159.69 26.3125C159.69 27.8125 159.115 28.9792 157.965 29.8125C156.815 30.6458 155.107 31.0625 152.84 31.0625H144.14ZM147.39 28.5125H152.64C153.857 28.5125 154.79 28.3125 155.44 27.9125C156.09 27.5125 156.415 26.8708 156.415 25.9875C156.415 25.1208 156.09 24.4875 155.44 24.0875C154.79 23.6708 153.857 23.4625 152.64 23.4625H147.14V20.9375H151.99C153.123 20.9375 153.99 20.7375 154.59 20.3375C155.207 19.9375 155.515 19.3375 155.515 18.5375C155.515 17.7208 155.207 17.1125 154.59 16.7125C153.99 16.3125 153.123 16.1125 151.99 16.1125H147.39V28.5125ZM168.859 31.2375C167.492 31.2375 166.275 30.9458 165.209 30.3625C164.142 29.7625 163.3 28.9458 162.684 27.9125C162.067 26.8792 161.759 25.7042 161.759 24.3875C161.759 23.0542 162.067 21.8792 162.684 20.8625C163.3 19.8292 164.142 19.0208 165.209 18.4375C166.275 17.8542 167.492 17.5625 168.859 17.5625C170.242 17.5625 171.467 17.8542 172.534 18.4375C173.617 19.0208 174.459 19.8208 175.059 20.8375C175.675 21.8542 175.984 23.0375 175.984 24.3875C175.984 25.7042 175.675 26.8792 175.059 27.9125C174.459 28.9458 173.617 29.7625 172.534 30.3625C171.467 30.9458 170.242 31.2375 168.859 31.2375ZM168.859 28.5625C169.625 28.5625 170.309 28.3958 170.909 28.0625C171.509 27.7292 171.975 27.2458 172.309 26.6125C172.659 25.9792 172.834 25.2375 172.834 24.3875C172.834 23.5208 172.659 22.7792 172.309 22.1625C171.975 21.5292 171.509 21.0458 170.909 20.7125C170.309 20.3792 169.634 20.2125 168.884 20.2125C168.117 20.2125 167.434 20.3792 166.834 20.7125C166.25 21.0458 165.784 21.5292 165.434 22.1625C165.084 22.7792 164.909 23.5208 164.909 24.3875C164.909 25.2375 165.084 25.9792 165.434 26.6125C165.784 27.2458 166.25 27.7292 166.834 28.0625C167.434 28.3958 168.109 28.5625 168.859 28.5625ZM187.026 31.0625V28.3625L186.851 27.7875V23.0625C186.851 22.1458 186.576 21.4375 186.026 20.9375C185.476 20.4208 184.643 20.1625 183.526 20.1625C182.776 20.1625 182.034 20.2792 181.301 20.5125C180.584 20.7458 179.976 21.0708 179.476 21.4875L178.251 19.2125C178.968 18.6625 179.818 18.2542 180.801 17.9875C181.801 17.7042 182.834 17.5625 183.901 17.5625C185.834 17.5625 187.326 18.0292 188.376 18.9625C189.443 19.8792 189.976 21.3042 189.976 23.2375V31.0625H187.026ZM182.826 31.2375C181.826 31.2375 180.951 31.0708 180.201 30.7375C179.451 30.3875 178.868 29.9125 178.451 29.3125C178.051 28.6958 177.851 28.0042 177.851 27.2375C177.851 26.4875 178.026 25.8125 178.376 25.2125C178.743 24.6125 179.334 24.1375 180.151 23.7875C180.968 23.4375 182.051 23.2625 183.401 23.2625H187.276V25.3375H183.626C182.559 25.3375 181.843 25.5125 181.476 25.8625C181.109 26.1958 180.926 26.6125 180.926 27.1125C180.926 27.6792 181.151 28.1292 181.601 28.4625C182.051 28.7958 182.676 28.9625 183.476 28.9625C184.243 28.9625 184.926 28.7875 185.526 28.4375C186.143 28.0875 186.584 27.5708 186.851 26.8875L187.376 28.7625C187.076 29.5458 186.534 30.1542 185.751 30.5875C184.984 31.0208 184.009 31.2375 182.826 31.2375ZM198.112 31.2375C196.995 31.2375 195.92 31.0958 194.887 30.8125C193.87 30.5125 193.062 30.1542 192.462 29.7375L193.662 27.3625C194.262 27.7458 194.978 28.0625 195.812 28.3125C196.645 28.5625 197.478 28.6875 198.312 28.6875C199.295 28.6875 200.003 28.5542 200.437 28.2875C200.887 28.0208 201.112 27.6625 201.112 27.2125C201.112 26.8458 200.962 26.5708 200.662 26.3875C200.362 26.1875 199.97 26.0375 199.487 25.9375C199.003 25.8375 198.462 25.7458 197.862 25.6625C197.278 25.5792 196.687 25.4708 196.087 25.3375C195.503 25.1875 194.97 24.9792 194.487 24.7125C194.003 24.4292 193.612 24.0542 193.312 23.5875C193.012 23.1208 192.862 22.5042 192.862 21.7375C192.862 20.8875 193.103 20.1542 193.587 19.5375C194.07 18.9042 194.745 18.4208 195.612 18.0875C196.495 17.7375 197.537 17.5625 198.737 17.5625C199.637 17.5625 200.545 17.6625 201.462 17.8625C202.378 18.0625 203.137 18.3458 203.737 18.7125L202.537 21.0875C201.903 20.7042 201.262 20.4458 200.612 20.3125C199.978 20.1625 199.345 20.0875 198.712 20.0875C197.762 20.0875 197.053 20.2292 196.587 20.5125C196.137 20.7958 195.912 21.1542 195.912 21.5875C195.912 21.9875 196.062 22.2875 196.362 22.4875C196.662 22.6875 197.053 22.8458 197.537 22.9625C198.02 23.0792 198.553 23.1792 199.137 23.2625C199.737 23.3292 200.328 23.4375 200.912 23.5875C201.495 23.7375 202.028 23.9458 202.512 24.2125C203.012 24.4625 203.412 24.8208 203.712 25.2875C204.012 25.7542 204.162 26.3625 204.162 27.1125C204.162 27.9458 203.912 28.6708 203.412 29.2875C202.928 29.9042 202.237 30.3875 201.337 30.7375C200.437 31.0708 199.362 31.2375 198.112 31.2375ZM211.878 31.2375C210.411 31.2375 209.278 30.8625 208.478 30.1125C207.678 29.3458 207.278 28.2208 207.278 26.7375V14.7625H210.403V26.6625C210.403 27.2958 210.561 27.7875 210.878 28.1375C211.211 28.4875 211.669 28.6625 212.253 28.6625C212.953 28.6625 213.536 28.4792 214.003 28.1125L214.878 30.3375C214.511 30.6375 214.061 30.8625 213.528 31.0125C212.994 31.1625 212.444 31.2375 211.878 31.2375ZM205.078 20.3125V17.8125H213.978V20.3125H205.078Z" fill="white"/>
<path d="M91.675 55.4375L99.675 37.9375H101.5L109.5 55.4375H107.55L100.2 39.0125H100.95L93.6 55.4375H91.675ZM94.825 50.7625L95.375 49.2625H105.55L106.1 50.7625H94.825ZM117.348 55.5625C116.048 55.5625 114.881 55.2792 113.848 54.7125C112.831 54.1292 112.031 53.3375 111.448 52.3375C110.865 51.3208 110.573 50.1625 110.573 48.8625C110.573 47.5458 110.865 46.3875 111.448 45.3875C112.031 44.3875 112.831 43.6042 113.848 43.0375C114.881 42.4708 116.048 42.1875 117.348 42.1875C118.465 42.1875 119.473 42.4042 120.373 42.8375C121.273 43.2708 121.981 43.9208 122.498 44.7875L121.173 45.6875C120.723 45.0208 120.165 44.5292 119.498 44.2125C118.831 43.8958 118.106 43.7375 117.323 43.7375C116.39 43.7375 115.548 43.9542 114.798 44.3875C114.048 44.8042 113.456 45.3958 113.023 46.1625C112.59 46.9292 112.373 47.8292 112.373 48.8625C112.373 49.8958 112.59 50.7958 113.023 51.5625C113.456 52.3292 114.048 52.9292 114.798 53.3625C115.548 53.7792 116.39 53.9875 117.323 53.9875C118.106 53.9875 118.831 53.8292 119.498 53.5125C120.165 53.1958 120.723 52.7125 121.173 52.0625L122.498 52.9625C121.981 53.8125 121.273 54.4625 120.373 54.9125C119.473 55.3458 118.465 55.5625 117.348 55.5625ZM134.21 55.4375V52.5375L134.135 52.0625V47.2125C134.135 46.0958 133.818 45.2375 133.185 44.6375C132.568 44.0375 131.643 43.7375 130.41 43.7375C129.56 43.7375 128.751 43.8792 127.985 44.1625C127.218 44.4458 126.568 44.8208 126.035 45.2875L125.235 43.9625C125.901 43.3958 126.701 42.9625 127.635 42.6625C128.568 42.3458 129.551 42.1875 130.585 42.1875C132.285 42.1875 133.593 42.6125 134.51 43.4625C135.443 44.2958 135.91 45.5708 135.91 47.2875V55.4375H134.21ZM129.685 55.5625C128.701 55.5625 127.843 55.4042 127.11 55.0875C126.393 54.7542 125.843 54.3042 125.46 53.7375C125.076 53.1542 124.885 52.4875 124.885 51.7375C124.885 51.0542 125.043 50.4375 125.36 49.8875C125.693 49.3208 126.226 48.8708 126.96 48.5375C127.71 48.1875 128.71 48.0125 129.96 48.0125H134.485V49.3375H130.01C128.743 49.3375 127.86 49.5625 127.36 50.0125C126.876 50.4625 126.635 51.0208 126.635 51.6875C126.635 52.4375 126.926 53.0375 127.51 53.4875C128.093 53.9375 128.91 54.1625 129.96 54.1625C130.96 54.1625 131.818 53.9375 132.535 53.4875C133.268 53.0208 133.801 52.3542 134.135 51.4875L134.535 52.7125C134.201 53.5792 133.618 54.2708 132.785 54.7875C131.968 55.3042 130.935 55.5625 129.685 55.5625ZM145.956 55.5625C144.706 55.5625 143.581 55.2792 142.581 54.7125C141.598 54.1458 140.823 53.3625 140.256 52.3625C139.689 51.3458 139.406 50.1792 139.406 48.8625C139.406 47.5292 139.689 46.3625 140.256 45.3625C140.823 44.3625 141.598 43.5875 142.581 43.0375C143.581 42.4708 144.706 42.1875 145.956 42.1875C147.106 42.1875 148.131 42.4458 149.031 42.9625C149.948 43.4792 150.673 44.2375 151.206 45.2375C151.756 46.2208 152.031 47.4292 152.031 48.8625C152.031 50.2792 151.764 51.4875 151.231 52.4875C150.698 53.4875 149.973 54.2542 149.056 54.7875C148.156 55.3042 147.123 55.5625 145.956 55.5625ZM146.081 53.9875C147.014 53.9875 147.848 53.7792 148.581 53.3625C149.331 52.9292 149.914 52.3292 150.331 51.5625C150.764 50.7792 150.981 49.8792 150.981 48.8625C150.981 47.8292 150.764 46.9292 150.331 46.1625C149.914 45.3958 149.331 44.8042 148.581 44.3875C147.848 43.9542 147.014 43.7375 146.081 43.7375C145.164 43.7375 144.339 43.9542 143.606 44.3875C142.873 44.8042 142.289 45.3958 141.856 46.1625C141.423 46.9292 141.206 47.8292 141.206 48.8625C141.206 49.8792 141.423 50.7792 141.856 51.5625C142.289 52.3292 142.873 52.9292 143.606 53.3625C144.339 53.7792 145.164 53.9875 146.081 53.9875ZM151.031 55.4375V51.4875L151.206 48.8375L150.956 46.1875V36.8875H152.731V55.4375H151.031ZM163.249 55.5625C161.883 55.5625 160.683 55.2792 159.649 54.7125C158.616 54.1292 157.808 53.3375 157.224 52.3375C156.641 51.3208 156.349 50.1625 156.349 48.8625C156.349 47.5625 156.624 46.4125 157.174 45.4125C157.741 44.4125 158.508 43.6292 159.474 43.0625C160.458 42.4792 161.558 42.1875 162.774 42.1875C164.008 42.1875 165.099 42.4708 166.049 43.0375C167.016 43.5875 167.774 44.3708 168.324 45.3875C168.874 46.3875 169.149 47.5458 169.149 48.8625C169.149 48.9458 169.141 49.0375 169.124 49.1375C169.124 49.2208 169.124 49.3125 169.124 49.4125H157.699V48.0875H168.174L167.474 48.6125C167.474 47.6625 167.266 46.8208 166.849 46.0875C166.449 45.3375 165.899 44.7542 165.199 44.3375C164.499 43.9208 163.691 43.7125 162.774 43.7125C161.874 43.7125 161.066 43.9208 160.349 44.3375C159.633 44.7542 159.074 45.3375 158.674 46.0875C158.274 46.8375 158.074 47.6958 158.074 48.6625V48.9375C158.074 49.9375 158.291 50.8208 158.724 51.5875C159.174 52.3375 159.791 52.9292 160.574 53.3625C161.374 53.7792 162.283 53.9875 163.299 53.9875C164.099 53.9875 164.841 53.8458 165.524 53.5625C166.224 53.2792 166.824 52.8458 167.324 52.2625L168.324 53.4125C167.741 54.1125 167.008 54.6458 166.124 55.0125C165.258 55.3792 164.299 55.5625 163.249 55.5625ZM189.162 42.1875C190.229 42.1875 191.154 42.3958 191.937 42.8125C192.737 43.2125 193.354 43.8292 193.787 44.6625C194.237 45.4958 194.462 46.5458 194.462 47.8125V55.4375H192.687V47.9875C192.687 46.6042 192.354 45.5625 191.687 44.8625C191.037 44.1458 190.112 43.7875 188.912 43.7875C188.012 43.7875 187.229 43.9792 186.562 44.3625C185.912 44.7292 185.404 45.2708 185.037 45.9875C184.687 46.6875 184.512 47.5375 184.512 48.5375V55.4375H182.737V47.9875C182.737 46.6042 182.404 45.5625 181.737 44.8625C181.07 44.1458 180.137 43.7875 178.937 43.7875C178.054 43.7875 177.279 43.9792 176.612 44.3625C175.945 44.7292 175.429 45.2708 175.062 45.9875C174.712 46.6875 174.537 47.5375 174.537 48.5375V55.4375H172.762V42.3125H174.462V45.8625L174.187 45.2375C174.587 44.2875 175.229 43.5458 176.112 43.0125C177.012 42.4625 178.07 42.1875 179.287 42.1875C180.57 42.1875 181.662 42.5125 182.562 43.1625C183.462 43.7958 184.045 44.7542 184.312 46.0375L183.612 45.7625C183.995 44.6958 184.67 43.8375 185.637 43.1875C186.62 42.5208 187.795 42.1875 189.162 42.1875ZM199.132 60.4125C198.515 60.4125 197.923 60.3125 197.357 60.1125C196.807 59.9125 196.332 59.6125 195.932 59.2125L196.757 57.8875C197.09 58.2042 197.448 58.4458 197.832 58.6125C198.232 58.7958 198.673 58.8875 199.157 58.8875C199.74 58.8875 200.24 58.7208 200.657 58.3875C201.09 58.0708 201.498 57.5042 201.882 56.6875L202.732 54.7625L202.932 54.4875L208.332 42.3125H210.082L203.507 57.0125C203.14 57.8625 202.732 58.5375 202.282 59.0375C201.848 59.5375 201.373 59.8875 200.857 60.0875C200.34 60.3042 199.765 60.4125 199.132 60.4125ZM202.632 55.8125L196.582 42.3125H198.432L203.782 54.3625L202.632 55.8125Z" fill="white"/>
</svg>
