<svg width="241" height="240" viewBox="0 0 241 240" fill="none" xmlns="http://www.w3.org/2000/svg">
<path d="M237.062 203.126C238.31 204.365 239.301 205.837 239.976 207.457C240.652 209.078 241 210.815 241 212.57C241 214.324 240.652 216.062 239.976 217.682C239.301 219.303 238.31 220.775 237.062 222.013L222.905 236.079C221.661 237.322 220.183 238.308 218.556 238.981C216.929 239.654 215.184 240 213.422 240C211.66 240 209.915 239.654 208.288 238.981C206.661 238.308 205.183 237.322 203.939 236.079L140.839 173.229L119.374 228.968C119.374 229.079 119.285 229.202 119.229 229.324C117.863 232.495 115.59 235.196 112.694 237.091C109.798 238.985 106.406 239.99 102.941 239.978H102.059C98.4453 239.826 94.9655 238.572 92.0903 236.387C89.2152 234.201 87.0833 231.189 85.9829 227.757L27.6685 49.9072C26.6675 46.7968 26.5463 43.4718 27.3183 40.2974C28.0904 37.1229 29.7257 34.2216 32.045 31.912C34.3642 29.6024 37.2776 27.9738 40.4653 27.205C43.653 26.4361 46.9918 26.5568 50.1151 27.5537L228.706 85.6261C232.12 86.7632 235.108 88.9012 237.279 91.7597C239.451 94.6182 240.704 98.0636 240.874 101.644C241.044 105.224 240.123 108.772 238.232 111.822C236.342 114.872 233.57 117.281 230.279 118.734L229.922 118.879L173.951 140.288L237.062 203.126ZM98.1768 26.6649C100.544 26.6649 102.814 25.7285 104.488 24.0617C106.162 22.3948 107.102 20.1341 107.102 17.7769V8.88879C107.102 6.53153 106.162 4.27082 104.488 2.60398C102.814 0.937149 100.544 0.000731267 98.1768 0.000731267C95.8097 0.000731267 93.5396 0.937149 91.8658 2.60398C90.192 4.27082 89.2517 6.53153 89.2517 8.88879V17.7769C89.2517 20.1341 90.192 22.3948 91.8658 24.0617C93.5396 25.7285 95.8097 26.6649 98.1768 26.6649ZM8.92583 106.657H17.8509C20.218 106.657 22.4881 105.721 24.1619 104.054C25.8357 102.387 26.776 100.127 26.776 97.7694C26.776 95.4121 25.8357 93.1514 24.1619 91.4846C22.4881 89.8178 20.218 88.8813 17.8509 88.8813H8.92583C6.55875 88.8813 4.28861 89.8178 2.61483 91.4846C0.941054 93.1514 0.000734314 95.4121 0.000734314 97.7694C0.000734314 100.127 0.941054 102.387 2.61483 104.054C4.28861 105.721 6.55875 106.657 8.92583 106.657ZM129.883 34.6197C130.932 35.1428 132.074 35.4549 133.244 35.5381C134.414 35.6212 135.589 35.4739 136.702 35.1045C137.815 34.7351 138.844 34.1509 139.73 33.3852C140.616 32.6195 141.341 31.6875 141.865 30.6423L150.79 12.8662C151.849 10.7579 152.024 8.31695 151.276 6.08027C150.528 3.84358 148.919 1.99441 146.802 0.939533C144.685 -0.115341 142.234 -0.289501 139.988 0.455366C137.742 1.20023 135.885 2.80311 134.825 4.91138L125.9 22.6875C125.375 23.7313 125.061 24.8681 124.976 26.0328C124.892 27.1975 125.039 28.3674 125.409 29.4755C125.779 30.5836 126.364 31.6083 127.132 32.491C127.9 33.3736 128.835 34.097 129.883 34.6197ZM22.782 125.378L4.93185 134.266C2.81479 135.321 1.20523 137.17 0.457263 139.407C-0.290707 141.643 -0.115822 144.084 0.943448 146.193C2.00272 148.301 3.8596 149.904 6.1056 150.649C8.35161 151.394 10.8027 151.219 12.9198 150.165L30.77 141.276C31.8183 140.754 32.7529 140.031 33.5207 139.149C34.2885 138.267 34.8742 137.243 35.2446 136.136C35.6149 135.028 35.7626 133.859 35.6792 132.695C35.5958 131.53 35.2829 130.394 34.7584 129.35C34.2339 128.306 33.5081 127.375 32.6223 126.61C31.7366 125.846 30.7084 125.263 29.5962 124.894C28.4841 124.525 27.31 124.378 26.1408 124.461C24.9716 124.544 23.8303 124.856 22.782 125.378Z" fill="white"/>
</svg>
