<svg width="227" height="317" viewBox="0 0 227 317" fill="none" xmlns="http://www.w3.org/2000/svg">
<path d="M222.195 173.719L41.7517 314.569C39.8406 316.055 37.4981 316.879 35.0777 316.916C32.6574 316.954 30.2904 316.203 28.3341 314.778C26.3778 313.352 24.9382 311.329 24.2326 309.013C23.527 306.698 23.5938 304.215 24.4227 301.941L60.6119 204.137L-14.0446 161.759C-15.6484 160.851 -17.0023 159.561 -17.9854 158.002C-18.9686 156.443 -19.5503 154.665 -19.6787 152.827C-19.8071 150.989 -19.4781 149.147 -18.7211 147.467C-17.9641 145.787 -16.8027 144.321 -15.3407 143.199L165.102 2.34847C167.013 0.86277 169.356 0.0389574 171.776 0.00135448C174.196 -0.0362485 176.563 0.714401 178.52 2.14002C180.476 3.56564 181.916 5.58888 182.621 7.90443C183.327 10.22 183.26 12.7022 182.431 14.9765L146.169 112.882L220.832 155.219C222.423 156.129 223.765 157.416 224.74 158.968C225.714 160.52 226.292 162.288 226.421 164.116C226.55 165.943 226.227 167.775 225.48 169.448C224.734 171.122 223.586 172.585 222.139 173.71L222.195 173.719Z" fill="white"/>
</svg>
