<svg width="47" height="86" viewBox="0 0 47 86" fill="none" xmlns="http://www.w3.org/2000/svg">
<path d="M46.8781 3.90933V82.0343C46.8787 82.8074 46.6499 83.5632 46.2207 84.2061C45.7915 84.8491 45.1812 85.3502 44.4671 85.6461C43.7529 85.942 42.9671 86.0194 42.2089 85.8684C41.4508 85.7175 40.7545 85.3449 40.2081 84.798L1.14565 45.7355C0.78246 45.3727 0.494342 44.9419 0.297762 44.4677C0.101183 43.9935 0 43.4852 0 42.9718C0 42.4585 0.101183 41.9502 0.297762 41.476C0.494342 41.0018 0.78246 40.5709 1.14565 40.2082L40.2081 1.14565C40.7545 0.598735 41.4508 0.226206 42.2089 0.0752276C42.9671 -0.0757505 43.7529 0.00161129 44.4671 0.297519C45.1812 0.593428 45.7915 1.09458 46.2207 1.73752C46.6499 2.38047 46.8787 3.1363 46.8781 3.90933Z" fill="white"/>
</svg>
