<svg width="47" height="86" viewBox="0 0 47 86" fill="none" xmlns="http://www.w3.org/2000/svg">
<path d="M45.7343 45.7336L6.6702 84.7944C6.12387 85.3413 5.42754 85.7138 4.66936 85.8648C3.91119 86.0157 3.12526 85.9384 2.41107 85.6425C1.69689 85.3466 1.08657 84.8455 0.657371 84.2026C0.22817 83.5596 -0.000607164 82.8038 1.21021e-06 82.0308V3.90916C-0.000607164 3.13616 0.22817 2.38036 0.657371 1.73745C1.08657 1.09453 1.69689 0.593402 2.41107 0.297507C3.12526 0.00161124 3.91119 -0.0757473 4.66936 0.0752244C5.42754 0.226196 6.12387 0.59871 6.6702 1.14561L45.7343 40.2064C46.0975 40.5692 46.3856 41 46.5822 41.4742C46.7788 41.9484 46.88 42.4567 46.88 42.97C46.88 43.4833 46.7788 43.9916 46.5822 44.4658C46.3856 44.94 46.0975 45.3708 45.7343 45.7336Z" fill="white"/>
</svg>
